<?xml version="1.0" encoding="UTF-8"?>
<svg id="Layer_5" data-name="Layer 5" xmlns="http://www.w3.org/2000/svg" viewBox="0 0 306.11 276">
  <defs>
    <style>
      .cls-1 {
        fill: #ff7288;
        stroke-width: 0px;
      }
    </style>
  </defs>
  <path class="cls-1" d="M5.44,90.3c-17.5,25.5,9.3,67.2,51.2,80.3,23.2,7.2,51.3,9.5,67.4,8.4C72.04,161.6,21.24,67.3,5.44,90.3M141.14,179c-35.9-42.5-9.1-158.2-42.7-144-37.3,15.8-45,69.1-15.3,102.5,16.4,18.4,41.5,34.6,58,41.5M153.14,0h-.2c-25.5.5,2.6,109-2.7,176.1-3.3,42.3-14.5,42.8-21.5,60.1-11,27,11.3,39.7,24.3,39.8h.2c13-.1,35.3-12.9,24.3-39.8-7-17.3-18.2-17.8-21.5-60.1C150.54,109.1,178.74.6,153.14,0M222.94,137.5c29.7-33.3,22-86.7-15.2-102.5-33.7-14.2-6.8,101.5-42.8,144,16.5-6.9,41.6-23.1,58-41.5M300.64,90.3c-15.8-23-66.6,71.3-118.6,88.7,16.1,1.1,44.3-1.2,67.4-8.4,41.9-13,68.8-54.8,51.2-80.3"/>
</svg>